<svg width="15" height="9" viewBox="0 0 15 9" fill="none" xmlns="http://www.w3.org/2000/svg">
<path d="M9.11876 8.99888C8.95361 8.27447 8.75567 7.55343 8.6296 6.8234C8.38376 5.40945 8.17826 3.991 7.83409 2.55343C7.72441 2.80202 7.60842 3.04724 7.50756 3.29809C7.05749 4.40382 6.62758 5.51631 6.14851 6.6108C6.05018 6.83577 5.77156 6.99663 5.57615 7.18785C5.38452 6.97413 5.09707 6.78515 5.01765 6.54106C4.69238 5.54106 4.43016 4.52418 4.14397 3.50619C4.05446 3.53656 3.99899 3.53993 3.98891 3.56018C3.60691 4.41057 2.87948 4.6198 1.93394 4.50731C1.48386 4.45332 1.01109 4.53993 0.564801 4.47694C0.358043 4.44769 0.187847 4.21485 0 4.07424C0.189107 3.91676 0.361825 3.64567 0.569844 3.62317C1.14473 3.56018 1.73601 3.6333 2.31467 3.5838C2.55421 3.56355 2.83661 3.41057 2.99294 3.23959C3.29425 2.91001 3.49723 2.50731 3.78719 2.1676C3.92209 2.01012 4.21079 1.80315 4.35451 1.84252C4.55749 1.89764 4.77433 2.13836 4.83863 2.33746C5.12607 3.23397 5.36183 4.14286 5.65935 5.20135C5.9115 4.5928 6.10943 4.12148 6.30232 3.64792C6.71457 2.62992 7.11926 1.60855 7.53908 0.592801C7.62355 0.386952 7.75719 0.19685 7.86813 0C8.03454 0 8.20222 0 8.36863 0C8.49218 0.366704 8.66616 0.725534 8.73046 1.10011C9.00529 2.72216 9.24861 4.34871 9.50328 5.973C9.77181 5.39595 9.9647 4.8099 10.1072 4.21597C10.2118 3.78178 10.4387 3.58043 10.9569 3.59168C12.0361 3.61642 13.1178 3.58493 14.1982 3.60967C14.4667 3.61642 14.7327 3.74916 15 3.82452V4.27447C14.7126 4.34983 14.4276 4.47919 14.1389 4.48931C13.2703 4.51856 12.3979 4.51406 11.5292 4.49269C11.175 4.48369 11.03 4.58043 10.9468 4.90101C10.6505 6.04162 10.3227 7.17548 9.98361 8.30709C9.91049 8.55006 9.74407 8.7694 9.62178 9H9.12128L9.11876 8.99888Z" fill="white"/>
</svg>
