<svg width="15" height="15" viewBox="0 0 15 15" fill="none" xmlns="http://www.w3.org/2000/svg">
<path d="M14.8992 3.28931C14.5366 2.00492 13.4295 1.17146 12.0537 1.15231C11.9365 1.15075 11.8188 1.14411 11.7024 1.15427C11.5817 1.16443 11.5203 1.13825 11.5418 1.0007C11.5543 0.919819 11.5379 0.834636 11.5453 0.752188C11.5781 0.381369 11.4332 0.124258 11.0745 0C10.9963 0 10.9182 0 10.84 0C10.4832 0.126993 10.3422 0.383714 10.3695 0.754142C10.3789 0.882698 10.4277 1.05697 10.3457 1.13199C10.2757 1.19608 10.1054 1.15192 9.97916 1.15192C8.24342 1.15231 6.50806 1.15075 4.77232 1.15544C4.6465 1.15583 4.61172 1.12105 4.62578 1.00266C4.63555 0.920991 4.62774 0.83698 4.62774 0.754142C4.62774 0.293451 4.53943 0.159425 4.1307 0C4.06231 0 3.99393 0 3.92555 0C3.57543 0.122304 3.42733 0.370037 3.45351 0.738121C3.46289 0.872148 3.51486 1.05853 3.42968 1.12965C3.34879 1.19764 3.16982 1.15153 3.03384 1.15153C2.66614 1.15231 2.30273 1.18396 1.95496 1.31447C0.925313 1.70092 0.28877 2.42888 0.0519707 3.50539C0.040248 3.55814 0.0543153 3.62262 0 3.66208C0 6.60167 0 9.54087 0 12.4805C0.0597859 12.5563 0.0468909 12.652 0.0699456 12.738C0.404434 13.9782 1.2051 14.7171 2.46255 14.9664C2.49264 14.9723 2.53406 14.9539 2.54891 15C5.8301 15 9.11129 15 12.3929 15C12.5457 14.966 12.7016 14.9418 12.8508 14.8965C13.9942 14.5495 14.696 13.7926 14.9519 12.6231C14.9625 12.5758 14.9437 12.5141 15 12.4805C15 9.56041 15 6.64075 15 3.72069C14.939 3.58354 14.9394 3.43193 14.8992 3.28931ZM1.26879 3.47804C1.51926 2.79111 2.14018 2.34605 2.89199 2.32534C3.04322 2.32104 3.19483 2.33042 3.34605 2.32221C3.43984 2.31713 3.45977 2.35073 3.4582 2.43826C3.45351 2.77001 3.45508 3.10214 3.45664 3.43428C3.4582 3.79298 3.70164 4.0497 4.03848 4.05127C4.37648 4.05244 4.625 3.7965 4.62735 3.43975C4.62969 3.10761 4.63165 2.77587 4.62539 2.44373C4.62344 2.34683 4.65118 2.32221 4.74692 2.32221C6.5827 2.32495 8.41848 2.32495 10.2539 2.32221C10.3512 2.32221 10.3762 2.34917 10.3746 2.44451C10.3687 2.7618 10.3719 3.07909 10.3723 3.39637C10.3727 3.79064 10.6095 4.05283 10.9619 4.05088C11.3089 4.04892 11.543 3.78907 11.5434 3.4038C11.5438 3.08143 11.5465 2.75946 11.5414 2.43709C11.5398 2.34839 11.5621 2.31947 11.6543 2.32182C12.0048 2.32963 12.3561 2.30463 12.6957 2.43123C13.3682 2.6817 13.8215 3.32018 13.8277 4.03837C13.8289 4.19467 13.8234 4.35097 13.8301 4.50688C13.8336 4.59167 13.8062 4.6116 13.7238 4.61121C13.2697 4.6073 12.8157 4.60925 12.3616 4.60925C10.7407 4.60925 9.11988 4.60925 7.49902 4.60925C5.43856 4.60925 3.37849 4.60808 1.31802 4.61238C1.19611 4.61277 1.16407 4.58425 1.16797 4.46194C1.17891 4.13137 1.15195 3.79884 1.26879 3.47804ZM13.8281 12.0342C13.8277 13.0756 13.0826 13.8258 12.0408 13.8262C9.01399 13.8281 5.98718 13.8278 2.96038 13.8262C1.91823 13.8254 1.17188 13.076 1.17188 12.0358C1.17149 10 1.17266 7.96421 1.16876 5.92842C1.16836 5.80885 1.19455 5.77524 1.31842 5.77563C3.37849 5.77993 5.43895 5.77876 7.49902 5.77876C9.55441 5.77876 11.6098 5.78032 13.6652 5.77563C13.7984 5.77524 13.8316 5.80807 13.8316 5.9417C13.8269 7.97241 13.8289 10.0035 13.8281 12.0342Z" fill="#F2F4FF"/>
<path d="M11.5387 10.9569C11.3484 10.953 11.1581 10.9562 10.9678 10.9562C10.7728 10.9562 10.5774 10.953 10.3824 10.9565C10.0515 10.9628 9.7955 11.2207 9.79668 11.5427C9.79785 11.8584 10.0487 12.1198 10.3715 12.1253C10.7618 12.1319 11.1522 12.1315 11.5422 12.1257C11.8646 12.1206 12.1178 11.8611 12.1217 11.5462C12.1264 11.2273 11.8677 10.964 11.5387 10.9569Z" fill="#F2F4FF"/>
<path d="M4.6168 10.9573C4.2362 10.953 3.8556 10.9538 3.475 10.9569C3.13505 10.9601 2.87324 11.2219 2.87754 11.547C2.88184 11.867 3.14013 12.121 3.47188 12.1272C3.6571 12.1307 3.84271 12.128 4.02793 12.128C4.22291 12.128 4.41829 12.1311 4.61328 12.1272C4.94542 12.1202 5.20176 11.8639 5.20254 11.5427C5.20411 11.2207 4.94816 10.9608 4.6168 10.9573Z" fill="#F2F4FF"/>
<path d="M6.91484 8.6699C7.30013 8.67576 7.6858 8.67498 8.07109 8.67029C8.40363 8.66599 8.65762 8.40771 8.65762 8.08495C8.65723 7.76141 8.40245 7.50586 8.0707 7.50039C7.8804 7.49726 7.6901 7.49961 7.4998 7.5C7.30482 7.5 7.10944 7.49687 6.91445 7.50078C6.59207 7.50742 6.33886 7.7618 6.33378 8.07831C6.32831 8.39716 6.58582 8.66521 6.91484 8.6699Z" fill="#F2F4FF"/>
<path d="M10.3918 8.67107C10.5821 8.67459 10.7724 8.67185 10.9627 8.67146C11.153 8.67146 11.3433 8.67459 11.5336 8.67068C11.865 8.66364 12.1221 8.40575 12.1225 8.08534C12.1225 7.76493 11.8642 7.5043 11.534 7.50078C11.1534 7.49687 10.7728 7.49726 10.3922 7.50039C10.0585 7.50313 9.80293 7.75399 9.79707 8.07752C9.79081 8.40263 10.0526 8.66521 10.3918 8.67107Z" fill="#F2F4FF"/>
<path d="M8.07695 10.9569C7.88665 10.953 7.69636 10.9562 7.50606 10.9562C7.31107 10.9562 7.11569 10.9534 6.9207 10.9569C6.58934 10.9632 6.33261 11.2207 6.33339 11.5419C6.33418 11.8557 6.587 12.1198 6.9082 12.1257C7.29817 12.1327 7.68893 12.1323 8.07891 12.1261C8.4091 12.121 8.66309 11.8537 8.65723 11.5329C8.65176 11.2137 8.40167 10.9636 8.07695 10.9569Z" fill="#F2F4FF"/>
<path d="M3.45781 8.6699C3.84818 8.67576 4.23854 8.67615 4.62852 8.6699C4.95089 8.66443 5.20215 8.40302 5.20332 8.08729C5.2045 7.7661 4.94738 7.50703 4.61719 7.50117C4.42689 7.49766 4.23659 7.50039 4.04629 7.50078C3.8513 7.50078 3.65593 7.49766 3.46094 7.50156C3.13856 7.50781 2.88457 7.76102 2.87793 8.07713C2.87128 8.39403 3.12997 8.66482 3.45781 8.6699Z" fill="#F2F4FF"/>
</svg>
