<svg width="12" height="16" viewBox="0 0 12 16" fill="none" xmlns="http://www.w3.org/2000/svg">
<path d="M0 4.53077C0.535514 4.0421 1.20131 4.37413 1.82454 4.23087C1.82454 3.85867 1.82454 3.48447 1.82454 3.10959C1.82454 2.26612 1.82258 1.42264 1.82585 0.578501C1.82716 0.216343 2.03796 -0.00590534 2.36071 0.000119463C2.66382 0.00614427 2.8648 0.229062 2.86546 0.576493C2.86808 1.67569 2.86677 2.77421 2.86677 3.8734C2.86677 3.99256 2.86677 4.11172 2.86677 4.26434C3.30604 4.26434 3.71521 4.261 4.12437 4.26568C4.48116 4.2697 4.69 4.48191 4.69 4.85076C4.69196 7.65899 4.69196 10.4672 4.69 13.2761C4.69 13.6416 4.47658 13.8599 4.12372 13.8645C3.72241 13.8692 3.3211 13.8659 2.86677 13.8659C2.86677 14.224 2.85891 14.5741 2.86873 14.9236C2.87986 15.3098 2.89557 15.6927 2.60621 16H2.0851C1.8396 15.7222 1.7977 15.3935 1.81931 15.0327C1.84222 14.6525 1.82454 14.2695 1.82454 13.9027C1.19476 13.7561 0.53355 14.0895 0 13.6001V4.53077Z" fill="white"/>
<path d="M9.38196 15.9987C9.0435 15.6653 9.12272 15.2342 9.12206 14.8232C9.1201 13.9817 9.12206 13.1403 9.12206 12.2647C8.68279 12.2647 8.27362 12.268 7.86446 12.2633C7.5057 12.2593 7.29948 12.0478 7.29948 11.6776C7.29752 8.86668 7.29752 6.05511 7.29948 3.2442C7.29948 2.87736 7.50898 2.66917 7.87035 2.66515C8.271 2.66113 8.67231 2.66448 9.12206 2.66448C9.12206 2.17848 9.12206 1.70587 9.12206 1.23325C9.12206 0.999625 9.11814 0.766666 9.12403 0.533037C9.13188 0.221755 9.34858 0.00218443 9.6399 0.000845581C9.93515 -0.000493265 10.1597 0.21573 10.1623 0.525673C10.1682 1.22388 10.1643 1.92209 10.1643 2.66448C10.5604 2.66448 10.9394 2.69527 11.3113 2.65645C11.723 2.61293 12.0039 2.92689 12 3.37206C11.979 6.09393 11.979 8.81648 12 11.5384C12.0032 11.9902 11.7499 12.3236 11.2615 12.2727C10.9099 12.2359 10.5512 12.2653 10.1649 12.2653C10.1649 13.1276 10.1656 13.9583 10.1649 14.7884C10.1649 15.2108 10.2363 15.6506 9.90438 15.9994H9.38327L9.38196 15.9987Z" fill="white"/>
</svg>
